<svg viewBox="0 0 46 46" xmlns="http://www.w3.org/2000/svg">
<path d="M23 0C10.3095 0 0 10.3095 0 23C0 35.6905 10.3095 46 23 46C35.6905 46 46 35.6905 46 23C46 10.3095 35.6905 0 23 0ZM23 2C34.6095 2 44 11.3905 44 23C44 34.6095 34.6095 44 23 44C11.3905 44 2 34.6095 2 23C2 11.3905 11.3905 2 23 2ZM32.9883 12.9883C32.8258 12.9915 32.6665 13.0342 32.5243 13.1129C32.382 13.1915 32.2611 13.3036 32.1719 13.4395L21.9707 28.4766L14.6797 21.7109C14.5839 21.6188 14.4707 21.5466 14.3468 21.4987C14.2228 21.4508 14.0905 21.4281 13.9576 21.4319C13.8248 21.4357 13.694 21.4659 13.573 21.5209C13.4519 21.5758 13.3431 21.6543 13.2527 21.7518C13.1624 21.8493 13.0924 21.9638 13.0468 22.0886C13.0012 22.2135 12.981 22.3462 12.9873 22.4789C12.9936 22.6117 13.0263 22.7419 13.0834 22.8619C13.1406 22.9819 13.2211 23.0892 13.3203 23.1777L22.3164 31.5254L33.8281 14.5605C33.9337 14.4092 33.9954 14.2317 34.0063 14.0475C34.0173 13.8633 33.9771 13.6797 33.8901 13.517C33.8032 13.3542 33.673 13.2187 33.5138 13.1254C33.3546 13.0321 33.1727 12.9846 32.9883 12.9883Z"/>
</svg>
