<svg viewBox="0 0 26 26" fill="none" xmlns="http://www.w3.org/2000/svg">
<g clip-path="url(#clip0_11_5618)">
<path d="M10.3428 0.317196C10.5716 0.623996 10.3532 1.2324 10.1036 1.4768C9.8956 1.6796 9.6824 1.8772 9.4484 2.0488C8.892 2.4648 8.892 3.0732 9.4536 3.4684C9.6564 3.6088 9.8332 3.7908 10.01 3.9624C10.5612 4.4928 10.5924 5.3716 10.0672 5.9332C9.88 6.1308 9.6616 6.2972 9.4536 6.474C9.2352 6.6612 9.0532 6.8536 9.0168 7.1656C8.9856 7.4412 8.8192 7.566 8.6112 7.5348C8.398 7.5036 8.3096 7.3268 8.3252 7.0356C8.3512 6.5728 8.6372 6.266 8.9544 5.98C9.126 5.824 9.3184 5.6888 9.4796 5.5224C9.8072 5.1844 9.802 4.732 9.4692 4.3992C9.3132 4.2432 9.1312 4.108 8.9544 3.9676C8.3148 3.4476 8.112 2.678 8.4968 2.08C8.658 1.8304 8.892 1.6068 9.126 1.4196C9.438 1.1648 9.7188 0.920396 9.75 0.483596C9.7552 0.426396 9.8072 0.369196 9.8384 0.311996C10.01 0.317196 10.1764 0.317196 10.3428 0.317196Z"/>
<path d="M13.5356 0.3172C13.7228 0.6344 13.6448 1.1076 13.3224 1.4508C13.104 1.6796 12.87 1.8876 12.6204 2.08C12.1056 2.4804 12.09 3.042 12.6308 3.4424C12.8128 3.5724 12.9636 3.744 13.1404 3.8792C13.8008 4.3992 13.8684 5.5224 13.0208 6.1828C12.8752 6.2972 12.7348 6.4064 12.5944 6.5312C12.4072 6.6976 12.2512 6.8744 12.2252 7.15C12.1992 7.4204 12.0276 7.5608 11.83 7.5348C11.6116 7.5088 11.5076 7.3372 11.5284 7.046C11.5596 6.5988 11.8196 6.2816 12.1368 6.006C12.3136 5.8552 12.4956 5.7096 12.6568 5.5432C13.0416 5.148 13.026 4.7008 12.6152 4.3316C12.4332 4.1652 12.22 4.03 12.038 3.8584C11.3048 3.1668 11.3412 2.2464 12.1108 1.5964C12.2512 1.4768 12.3916 1.3624 12.5372 1.2532C12.7608 1.0764 12.9116 0.8632 12.9428 0.5668C12.948 0.4836 13 0.4056 13.0364 0.3172C13.2028 0.3172 13.3692 0.3172 13.5356 0.3172Z"/>
<path d="M16.822 0.317193C16.9884 0.753993 16.8324 1.12839 16.562 1.46119C16.4268 1.62759 16.25 1.75759 16.0888 1.90319C15.9744 2.00719 15.8444 2.10599 15.7352 2.21519C15.3816 2.57919 15.3816 2.96919 15.7508 3.32279C15.9588 3.52559 16.2032 3.69199 16.406 3.89479C17.1132 4.60199 17.0508 5.55359 16.2656 6.18279C16.1096 6.30759 15.9588 6.43759 15.808 6.56239C15.6156 6.72359 15.5012 6.92119 15.47 7.18119C15.444 7.41519 15.2672 7.57119 15.0696 7.52959C14.846 7.48799 14.7628 7.33199 14.768 7.11359C14.7784 6.64039 15.0436 6.31279 15.3712 6.01639C15.5012 5.90199 15.6416 5.79799 15.7768 5.68359C16.3332 5.22079 16.328 4.67999 15.756 4.22759C15.548 4.06119 15.3348 3.89999 15.158 3.70759C14.6016 3.09919 14.6276 2.30879 15.2152 1.73159C15.288 1.66399 15.3556 1.59119 15.4388 1.53399C15.8808 1.23239 16.2136 0.868393 16.2708 0.306793C16.458 0.317193 16.64 0.317193 16.822 0.317193Z"/>
<path d="M3.0732 8.92838C3.0732 8.56438 3.0732 8.24198 3.0732 7.90918C9.7448 7.90918 16.3956 7.90918 23.0672 7.90918C23.0672 8.23158 23.0672 8.55918 23.0672 8.91278C23.3428 8.91278 23.6132 8.88678 23.8836 8.91798C24.1592 8.94918 24.4504 8.98558 24.6896 9.11038C25.1888 9.37038 25.428 9.95798 25.2928 10.4884C25.1784 10.946 24.7052 11.44 24.1748 11.4348C23.712 11.4348 23.244 11.4504 22.7812 11.4452C22.6252 11.4452 22.5524 11.492 22.4952 11.648C21.8244 13.442 20.7532 14.9604 19.24 16.146C18.7876 16.4996 18.2676 16.7752 17.7788 17.0872C17.7008 17.134 17.6228 17.1808 17.5344 17.2328C17.8256 17.8724 18.1064 18.5068 18.3924 19.1412C19.1204 20.748 19.8588 22.3496 20.5816 23.9616C20.8572 24.57 20.7116 25.1108 20.2332 25.4956C20.0512 25.6412 19.8484 25.61 19.6508 25.6412C18.98 25.7452 18.6212 25.402 18.3716 24.83C17.966 23.8888 17.5396 22.9528 17.1288 22.0116C17.056 21.84 16.9676 21.7672 16.7648 21.7672C14.3416 21.7776 11.9132 21.7776 9.49 21.7672C9.282 21.7672 9.204 21.8504 9.1312 22.022C8.6788 23.0464 8.2212 24.0656 7.7584 25.0848C7.5868 25.4644 7.3008 25.6724 6.8588 25.6464C6.5 25.6204 6.1308 25.7036 5.8448 25.3708C5.5588 25.038 5.408 24.6584 5.5588 24.2476C5.7928 23.6028 6.0892 22.9788 6.3648 22.3496C7.1084 20.6752 7.852 19.006 8.5956 17.3316C8.6112 17.2952 8.6164 17.2536 8.6268 17.2328C8.1276 16.9104 7.6232 16.6244 7.1604 16.2812C5.928 15.3712 4.94 14.2428 4.2484 12.87C4.0352 12.4488 3.8688 12.0068 3.666 11.5856C3.6348 11.518 3.5256 11.4504 3.4528 11.4504C3.0212 11.4348 2.5896 11.4452 2.158 11.4452C1.4404 11.44 0.884 10.9044 0.8684 10.2076C0.8528 9.53678 1.3728 8.99078 2.0748 8.94918C2.3868 8.91278 2.7092 8.92838 3.0732 8.92838ZM3.874 9.65118C4.4148 13.7124 8.1484 17.914 13.7748 17.55C18.4548 17.2432 21.7724 13.494 22.2456 9.65118C16.1252 9.65118 10.01 9.65118 3.874 9.65118ZM17.4044 21.0444C17.8204 21.9908 18.226 22.9268 18.6368 23.8628C18.7616 24.1488 18.8864 24.44 19.0216 24.726C19.1204 24.9288 19.3128 25.0536 19.526 25.0172C19.6716 24.9912 19.8588 24.8612 19.916 24.7312C19.9784 24.596 19.9472 24.3828 19.8848 24.2372C19.1152 22.4848 18.3352 20.7376 17.5552 18.9904C17.342 18.5068 17.1236 18.0232 16.9052 17.5344C16.5828 17.654 16.2864 17.7632 15.9744 17.8776C16.3436 18.7096 16.7076 19.526 17.0768 20.3528C14.3936 20.3528 11.7468 20.3528 9.0636 20.3528C9.438 19.4896 9.7968 18.6576 10.1608 17.8152C9.8332 17.7008 9.5368 17.5916 9.2404 17.4876C9.2144 17.5292 9.204 17.55 9.1936 17.576C8.372 19.4324 7.5452 21.2836 6.7236 23.14C6.5416 23.556 6.3492 23.972 6.1932 24.3984C6.0788 24.7104 6.3284 24.9964 6.656 25.0016C6.9628 25.0068 7.0824 24.7936 7.1916 24.5596C7.6284 23.5768 8.1016 22.6044 8.4968 21.6008C8.6788 21.1432 8.918 21.034 9.386 21.0392C12.0484 21.06 14.716 21.0444 17.4044 21.0444ZM10.1504 19.6196C12.1212 19.6196 14.04 19.6196 15.9952 19.6196C15.7508 19.0684 15.522 18.5484 15.288 18.018C13.806 18.3456 12.3292 18.3404 10.8576 18.018C10.6184 18.5536 10.3896 19.0736 10.1504 19.6196ZM3.77 8.89718C9.9736 8.89718 16.1564 8.89718 22.3444 8.89718C22.3444 8.79318 22.3444 8.71518 22.3444 8.61638C16.1512 8.61638 9.9684 8.61638 3.77 8.61638C3.77 8.71518 3.77 8.79838 3.77 8.89718ZM3.1304 9.62518C2.7352 9.64598 2.3452 9.64598 1.9656 9.68758C1.7108 9.71358 1.5444 9.93718 1.534 10.1868C1.5236 10.4156 1.6744 10.6756 1.9084 10.7068C2.3816 10.7692 2.86 10.7796 3.3592 10.816C3.276 10.3844 3.2084 10.0308 3.1304 9.62518ZM22.7864 10.7328C23.2492 10.7328 23.6704 10.7432 24.0968 10.7276C24.414 10.7172 24.6064 10.4936 24.6064 10.1712C24.6064 9.87478 24.4036 9.64598 24.102 9.63558C23.7484 9.61998 23.3896 9.63038 23.01 9.63038C22.9372 9.99438 22.8644 10.348 22.7864 10.7328Z"/>
</g>
<defs>
<clipPath id="clip0_11_5618">
<rect width="26" height="26" fill="white"/>
</clipPath>
</defs>
</svg>
