<svg viewBox="0 0 298 431" xmlns="http://www.w3.org/2000/svg">
<path d="M290.208 107.051C288.677 101.313 285.568 95.199 283.268 89.846C255.746 23.704 195.611 0 147.055 0C82.054 0 10.463 43.586 0.905029 133.427V151.782C0.905029 152.548 1.16903 159.429 1.54403 162.871C6.90203 205.687 40.687 251.191 65.919 294.007C93.065 339.88 121.233 385.006 149.14 430.113C166.348 400.677 183.494 370.854 200.31 342.18C204.893 333.765 210.213 325.355 214.801 317.323C217.859 311.975 223.701 306.627 226.37 301.651C253.515 251.952 297.208 201.869 297.208 152.547V132.285C297.209 126.938 290.581 108.204 290.208 107.051ZM148.245 199.193C129.138 199.193 108.224 189.639 97.901 163.254C96.363 159.054 96.487 150.637 96.487 149.866V138.014C96.487 104.378 125.047 89.082 149.893 89.082C180.481 89.082 204.138 113.554 204.138 144.142C204.138 174.729 178.833 199.193 148.245 199.193Z"/>
</svg>
