<svg viewBox="0 0 26 26" fill="none" xmlns="http://www.w3.org/2000/svg">
<g clip-path="url(#clip0_11_5658)">
<path d="M13.0364 25.2252C8.9856 25.2252 4.9348 25.2252 0.884 25.2304C0.6864 25.2304 0.5824 25.0952 0.4524 24.9912C0.4368 24.9756 0.4316 24.9392 0.4264 24.9132C0.4212 24.8872 0.4264 24.856 0.4264 24.8248C0.4264 17.5604 0.4316 10.296 0.4368 3.03159C0.4368 2.42839 0.4576 1.81999 0.4784 1.21679C0.4888 0.89959 0.7124 0.77999 0.9412 0.97239C1.3364 1.30519 1.7264 1.64839 2.106 2.01239C4.7632 4.55519 7.4152 7.09799 10.0672 9.64599C13.2184 12.6724 16.3696 15.6988 19.5156 18.7304C21.4292 20.5764 23.3324 22.438 25.2408 24.2944C25.324 24.3724 25.402 24.4608 25.48 24.5492C25.584 24.6636 25.61 24.7988 25.558 24.9496C25.506 25.1004 25.402 25.1732 25.2564 25.1732C24.076 25.1836 22.9008 25.2044 21.7204 25.2096C18.8292 25.2148 15.938 25.2096 13.0416 25.2096C13.0364 25.2148 13.0364 25.22 13.0364 25.2252ZM1.2168 24.284C8.8348 24.284 16.4528 24.284 24.0916 24.284C24.076 24.2476 24.0708 24.2268 24.0604 24.2216C23.3428 23.5352 22.62 22.8488 21.9024 22.1624C21.8348 22.1 21.7828 22.1104 21.7256 22.1728C21.6216 22.2924 21.5176 22.4172 21.4084 22.5368C21.268 22.6928 21.1328 22.854 20.982 22.9996C20.8676 23.114 20.7376 23.114 20.6076 23.0152C20.4776 22.9216 20.4516 22.7864 20.4932 22.6304C20.5244 22.516 20.566 22.3964 20.618 22.2924C20.748 22.0272 20.8884 21.7672 21.0184 21.502C21.0444 21.45 21.0496 21.3408 21.0184 21.3096C20.7896 21.0652 20.5504 20.8312 20.306 20.5868C20.2384 20.6752 20.1864 20.7376 20.1344 20.8C19.9316 21.0444 19.734 21.294 19.526 21.528C19.4012 21.6684 19.2348 21.6632 19.0736 21.5332C18.9488 21.4344 18.9072 21.268 18.9904 21.0964C19.058 20.9612 19.1412 20.8312 19.2296 20.7064C19.3908 20.488 19.5624 20.2748 19.7392 20.0408C19.4428 19.76 19.162 19.4896 18.8708 19.2088C18.6732 19.4636 18.4964 19.6924 18.3196 19.916C18.2416 20.0096 18.1636 20.1084 18.07 20.1812C17.9504 20.28 17.7424 20.2488 17.6332 20.1396C17.524 20.0252 17.5032 19.8796 17.5864 19.708C17.6228 19.6248 17.6696 19.5468 17.7216 19.474C17.9088 19.214 18.096 18.9592 18.2936 18.6888C18.1012 18.4912 17.914 18.2936 17.7164 18.1116C17.4772 17.8932 17.5292 17.8932 17.3108 18.1428C17.212 18.2572 17.1184 18.3768 17.0248 18.4912C16.8116 18.7512 16.6088 19.0164 16.3904 19.2608C16.2396 19.4272 16.0316 19.4324 15.8964 19.2816C15.7872 19.162 15.7144 19.006 15.8808 18.772C16.12 18.4444 16.3644 18.1168 16.6088 17.7892C16.7128 17.6488 16.8272 17.5084 16.9416 17.3576C16.6452 17.0768 16.3592 16.8064 16.0628 16.5308C15.99 16.6244 15.9328 16.7024 15.8756 16.7752C15.6936 16.9988 15.5168 17.2328 15.3244 17.446C15.184 17.602 15.002 17.602 14.8668 17.4824C14.7316 17.3628 14.69 17.1444 14.7992 16.9624C14.9188 16.7596 15.0644 16.5724 15.1996 16.38C15.2932 16.25 15.392 16.1252 15.5012 15.9848C15.2568 15.756 15.028 15.548 14.7992 15.3348C14.7264 15.2672 14.664 15.2672 14.6016 15.3504C14.4768 15.5116 14.352 15.6624 14.222 15.8132C14.118 15.9328 14.0088 16.0576 13.8944 16.1668C13.7904 16.2708 13.6656 16.302 13.5304 16.2188C13.4004 16.1356 13.338 16.0056 13.3744 15.8548C13.4056 15.7144 13.4628 15.5688 13.5408 15.4544C13.6864 15.236 13.8528 15.0332 14.0192 14.8252C14.0868 14.742 14.0868 14.664 14.0192 14.5964C13.7748 14.3468 13.5252 14.1024 13.2704 13.8528C13.2132 13.9256 13.1716 13.9828 13.13 14.0348C12.9168 14.2896 12.7088 14.5548 12.4852 14.7992C12.3656 14.9292 12.1628 14.9136 12.038 14.794C11.9132 14.6744 11.8768 14.4768 11.9652 14.3208C12.0484 14.1752 12.1524 14.04 12.2512 13.9048C12.3968 13.7124 12.5476 13.5304 12.7088 13.3328C12.4332 13.0572 12.168 12.792 11.8976 12.5216C11.83 12.6048 11.7832 12.6724 11.7312 12.7348C11.5128 12.9844 11.2996 13.2444 11.0708 13.4836C10.9564 13.6032 10.79 13.572 10.6704 13.4576C10.556 13.3432 10.5144 13.1664 10.5872 13.0156C10.6236 12.9376 10.6704 12.87 10.7224 12.8024C10.8888 12.5788 11.0552 12.35 11.2216 12.1316C11.2944 12.038 11.2944 11.9652 11.206 11.882C11.0136 11.7 10.8264 11.518 10.6444 11.3256C10.5248 11.2008 10.4416 11.2008 10.322 11.3412C9.9736 11.7468 9.6044 12.142 9.2456 12.5424C9.1364 12.662 9.0168 12.6724 8.8868 12.5892C8.762 12.506 8.6944 12.3396 8.736 12.1836C8.7672 12.0744 8.814 11.9652 8.8764 11.8716C9.1156 11.5128 9.3652 11.1592 9.6096 10.8004C9.6772 10.7016 9.75 10.6028 9.8228 10.4936C9.5472 10.2336 9.2872 9.98919 9.0168 9.73439C8.944 9.82799 8.8868 9.90599 8.8244 9.97879C8.6372 10.2076 8.4552 10.4416 8.2628 10.66C8.138 10.8004 7.9456 10.8056 7.8208 10.6964C7.6908 10.582 7.6492 10.3636 7.7376 10.192C7.7948 10.0828 7.8624 9.97879 7.9352 9.87999C8.1016 9.65639 8.2732 9.43799 8.4552 9.20399C8.2212 8.97519 7.9924 8.75159 7.7636 8.53319C7.5972 8.37719 7.592 8.38239 7.4464 8.55399C7.2384 8.79839 7.0408 9.05319 6.8276 9.29239C6.6924 9.44319 6.5156 9.43799 6.3752 9.30799C6.2348 9.17799 6.2036 8.98039 6.3076 8.80879C6.3752 8.69439 6.4532 8.57999 6.5364 8.47599C6.6976 8.26279 6.8588 8.05479 7.0356 7.82599C6.76 7.57119 6.4896 7.32159 6.2192 7.07199C6.1724 7.12919 6.1412 7.16039 6.1152 7.19159C5.902 7.45159 5.6992 7.71679 5.4808 7.96639C5.3092 8.16399 5.096 8.12759 4.9452 7.90919C4.8516 7.76879 4.862 7.63879 4.9452 7.50359C5.122 7.21239 5.2936 6.92119 5.486 6.64559C5.5744 6.51039 5.5588 6.42199 5.4548 6.32319C5.2832 6.16199 5.122 5.98519 4.9504 5.82399C4.7632 5.65239 4.758 5.65239 4.5864 5.85519C4.3784 6.09439 4.1808 6.34399 3.9728 6.57799C3.8376 6.72879 3.666 6.71319 3.5256 6.57279C3.3852 6.42719 3.3592 6.23999 3.484 6.05799C3.6608 5.79799 3.8532 5.54839 4.0352 5.29359C4.1756 5.09599 4.1756 5.09079 4.0144 4.92959C3.8792 4.79439 3.7388 4.65919 3.5984 4.53439C3.3592 4.32639 3.4112 4.35239 3.2292 4.56039C3.1616 4.60199 3.12 4.65399 3.0784 4.70599C2.8028 5.04399 2.5376 5.38719 2.2516 5.70959C2.1788 5.78759 2.0488 5.85519 1.95 5.84479C1.664 5.81359 1.5496 5.53799 1.716 5.27279C1.898 4.97639 2.1112 4.70079 2.314 4.41999C2.4648 4.21199 2.6156 4.00919 2.7872 3.78039C2.262 3.27079 1.7472 2.77679 1.2272 2.27759C1.1076 2.62599 1.1024 23.8264 1.2168 24.284Z"/>
<path d="M9.6304 21.1796C7.904 21.1796 6.1828 21.1796 4.4564 21.1796C4.4044 21.1796 4.3524 21.1796 4.3004 21.1692C4.0352 21.1276 3.9676 21.0964 3.9676 20.774C3.9728 17.4148 3.9728 14.0556 3.9676 10.6964C3.9676 10.53 4.004 10.4208 4.1444 10.3532C4.2796 10.2856 4.3992 10.2804 4.5188 10.3948C5.2312 11.0552 5.954 11.7 6.656 12.376C9.0792 14.7056 11.492 17.0404 13.9048 19.3752C14.3052 19.7652 14.6952 20.176 15.0904 20.5712C15.1892 20.67 15.2516 20.7792 15.184 20.9196C15.1164 21.06 15.054 21.19 14.8616 21.19C13.1144 21.1796 11.3724 21.1848 9.6252 21.1848C9.6304 21.1796 9.6304 21.1796 9.6304 21.1796ZM4.7476 11.6272C4.7476 14.56 4.7476 17.4512 4.7476 20.3684C7.748 20.3476 10.738 20.3944 13.728 20.332C13.7332 20.3112 13.7332 20.2904 13.7384 20.2696C10.7536 17.394 7.7636 14.5236 4.7476 11.6272Z"/>
</g>
<defs>
<clipPath id="clip0_11_5658">
<rect width="26" height="26" fill="white"/>
</clipPath>
</defs>
</svg>
