<svg width="26" height="26" viewBox="0 0 26 26" fill="none" xmlns="http://www.w3.org/2000/svg">
<g clip-path="url(#clip0_11_5684)">
<path d="M22.3756 21.8868C16.2188 21.8868 10.1036 21.8868 3.952 21.8868C3.8792 22.3652 3.8064 22.8384 3.7336 23.3168C3.6296 24.0292 3.5308 24.7416 3.4268 25.4488C3.38 25.766 3.1252 25.9636 2.8392 25.922C2.522 25.8804 2.366 25.6412 2.4128 25.3032C2.7768 22.8332 3.1356 20.3684 3.4996 17.8984C3.6556 16.8376 3.8168 15.7716 3.9624 14.7108C3.9728 14.6276 3.9052 14.5028 3.8324 14.4508C3.3072 14.1128 3.0992 13.6604 3.1824 13.104C3.2292 12.792 3.276 12.4852 3.3176 12.1732C3.3332 12.0588 3.3332 11.9808 3.1616 11.9236C1.9708 11.544 1.3624 10.7744 1.352 9.66681C1.3468 8.98561 1.352 8.29921 1.352 7.57641C1.2324 7.57641 1.1336 7.57641 1.0296 7.57641C0.572 7.57121 0.338 7.41521 0.3432 7.11361C0.3484 6.82761 0.5772 6.67681 1.0244 6.67681C1.8668 6.67681 2.7092 6.67681 3.5568 6.67681C3.6608 6.67681 3.77 6.67681 3.9 6.67681C3.9156 6.47921 3.9364 6.30241 3.9416 6.12041C3.9884 4.96081 5.096 3.97801 6.6664 3.99361C7.8988 4.00921 9.1312 3.99881 10.3636 3.99361C10.4312 3.99361 10.4988 3.98321 10.6496 3.97281C10.5248 3.79601 10.4312 3.65041 10.3272 3.51001C10.1088 3.23441 9.854 2.97961 9.672 2.68321C9.5784 2.53241 9.5784 2.32441 9.5888 2.14241C9.6044 1.90841 9.7968 1.78361 10.062 1.77321C10.3116 1.76801 10.5248 1.86681 10.5456 2.09041C10.582 2.44401 10.8212 2.66761 11.076 2.90161C11.7884 3.55161 11.7936 4.39401 11.0968 5.05961C10.842 5.30401 10.582 5.52241 10.5456 5.89161C10.5248 6.12041 10.296 6.22441 10.0308 6.20361C9.776 6.18801 9.5836 6.04761 9.5992 5.83441C9.62 5.52241 9.7188 5.21561 9.7864 4.89321C9.7708 4.89321 9.6824 4.88281 9.5888 4.88281C8.6476 4.88281 7.7064 4.91921 6.7652 4.87241C5.7096 4.82041 4.7632 5.42881 4.966 6.64561C10.4156 6.64561 15.8704 6.64561 21.32 6.64561C21.5488 5.63681 20.8468 4.88281 19.6768 4.87761C18.668 4.87761 17.6592 4.87241 16.6504 4.88281C16.5204 4.88281 16.3644 4.95041 16.2604 5.02841C15.9588 5.25721 15.7092 5.50681 15.6676 5.89161C15.6416 6.11521 15.4128 6.21401 15.1424 6.19841C14.898 6.17761 14.7264 6.02681 14.7056 5.79801C14.6744 5.36641 14.8564 4.99201 15.2048 4.70601C15.8912 4.13921 15.8704 3.81681 15.1944 3.26041C14.8824 3.00561 14.7108 2.67281 14.6952 2.29321C14.6848 1.98641 14.846 1.79921 15.1476 1.76801C15.444 1.74201 15.626 1.90841 15.7144 2.19961C15.7716 2.38681 15.8704 2.58441 16.0212 2.71961C16.3696 3.04721 16.6764 3.38521 16.7336 3.84801C16.7388 3.90001 16.8948 3.97281 16.978 3.97281C17.862 3.98321 18.7408 3.97801 19.6248 3.97801C20.2488 3.97801 20.8364 4.09241 21.3408 4.43041C22.0532 4.90881 22.3704 5.54841 22.3756 6.31801C22.3756 6.41681 22.3756 6.52081 22.3756 6.65601C22.5004 6.65601 22.5992 6.65601 22.7032 6.65601C23.556 6.65601 24.4088 6.65081 25.2616 6.66121C25.4228 6.66121 25.5944 6.69241 25.7348 6.74961C25.9272 6.83281 26.0104 7.01481 25.9324 7.18121C25.87 7.31121 25.7296 7.45161 25.584 7.50881C25.4072 7.57641 25.1888 7.55561 24.9444 7.57641C24.9444 7.76881 24.9496 7.97161 24.9444 8.16921C24.934 8.79321 24.9652 9.42241 24.8976 10.0412C24.7988 10.946 24.2008 11.5596 23.2284 11.8716C22.9944 11.9444 22.9788 12.0432 22.9996 12.22C23.0464 12.688 23.1088 13.156 23.0932 13.624C23.0828 13.936 22.8488 14.196 22.5472 14.3676C22.3652 14.4716 22.3132 14.5808 22.3444 14.7628C22.516 15.8652 22.6772 16.9728 22.8384 18.0752C23.062 19.5884 23.2856 21.1016 23.5092 22.6148C23.634 23.478 23.764 24.336 23.8888 25.1992C23.8992 25.2824 23.9148 25.3656 23.9148 25.4488C23.9044 25.6828 23.7016 25.87 23.4468 25.8908C23.2128 25.9064 22.9632 25.7608 22.9268 25.532C22.8176 24.9132 22.7292 24.2944 22.6408 23.6756C22.5576 23.1088 22.4692 22.5108 22.3756 21.8868ZM22.0428 19.6352C21.9492 18.9852 21.8608 18.3664 21.7672 17.7476C21.6268 16.7752 21.4864 15.808 21.3304 14.8408C21.32 14.7628 21.2368 14.6536 21.1536 14.6224C20.4724 14.3884 20.1448 13.9516 20.072 13.3328C20.0252 12.9064 19.9472 12.4852 19.8848 12.0692C15.3764 12.0692 10.9044 12.0692 6.422 12.0692C6.3544 12.532 6.292 12.974 6.2296 13.416C6.1568 13.9412 5.8812 14.3624 5.3092 14.5548C5.0284 14.6484 4.9868 14.794 4.9556 14.9968C4.784 16.1616 4.6124 17.3212 4.4408 18.4808C4.3836 18.8604 4.3368 19.24 4.2848 19.6352C10.2284 19.6352 16.12 19.6352 22.0428 19.6352ZM23.92 7.60241C16.7284 7.60241 9.568 7.60241 2.4024 7.60241C2.4024 8.41361 2.3712 9.20401 2.4128 9.99441C2.444 10.6028 3.1096 11.1228 3.8116 11.1384C4.7008 11.154 5.5952 11.154 6.4844 11.1592C9.724 11.1644 12.9636 11.1644 16.198 11.1644C18.304 11.1644 20.4048 11.1592 22.5108 11.1436C23.2128 11.1384 23.8784 10.6132 23.9096 9.99961C23.9512 9.20401 23.92 8.41361 23.92 7.60241ZM4.082 20.9664C10.1504 20.9664 16.1876 20.9664 22.2456 20.9664C22.2196 20.8104 22.1936 20.6804 22.1728 20.5504C16.1564 20.5504 10.1608 20.5504 4.1548 20.5504C4.134 20.6908 4.1132 20.8156 4.082 20.9664ZM5.3976 12.064C5.0492 12.064 4.7164 12.064 4.3628 12.064C4.3056 12.454 4.2432 12.8388 4.2016 13.2184C4.1652 13.5512 4.3264 13.7488 4.6228 13.78C4.9452 13.8164 5.1636 13.6552 5.2208 13.3224C5.2884 12.9116 5.3404 12.4956 5.3976 12.064ZM20.9248 12.0536C20.9924 12.5112 21.0496 12.9428 21.1276 13.3744C21.1796 13.676 21.398 13.8164 21.7048 13.7852C21.9856 13.754 22.1572 13.5668 22.1312 13.2756C22.1 12.9168 22.0428 12.558 21.9856 12.1992C21.9752 12.1472 21.892 12.064 21.84 12.0588C21.5436 12.0432 21.242 12.0536 20.9248 12.0536Z"/>
<path d="M14.17 0.618807C14.1648 0.889207 13.9776 1.19601 13.7072 1.47161C13.6188 1.56001 13.52 1.64321 13.4264 1.73161C13.0572 2.08521 13.052 2.38161 13.4368 2.73001C13.8008 3.05761 14.1232 3.39041 14.17 3.86881C14.2168 4.35761 14.0296 4.76321 13.6448 5.10641C13.3952 5.33001 13.156 5.54841 13.1248 5.89681C13.104 6.12561 12.8596 6.24521 12.5944 6.22961C12.3396 6.21401 12.1628 6.05281 12.1524 5.80841C12.1316 5.38721 12.3084 5.02321 12.6516 4.74241C13.312 4.20161 13.338 3.88961 12.662 3.29681C11.934 2.65201 11.9652 1.80961 12.6724 1.14921C12.9168 0.920407 13.1664 0.712407 13.1924 0.364007C13.2132 0.124807 13.4888 -0.0207927 13.7436 0.0156073C14.0244 0.0416073 14.1856 0.234007 14.17 0.618807Z"/>
<path d="M11.6376 9.37561C11.6376 8.64241 12.3188 8.02881 13.13 8.03921C13.4264 8.04441 13.6396 8.20561 13.6656 8.44481C13.6864 8.66321 13.5096 8.85041 13.234 8.90761C13.1508 8.92321 13.0364 8.91801 12.9844 8.96481C12.8596 9.07921 12.6776 9.21961 12.6776 9.34961C12.6776 9.49001 12.8232 9.68761 12.9688 9.75521C13.0988 9.81241 13.3224 9.73961 13.4992 9.69801C13.5616 9.68241 13.6032 9.60441 13.6552 9.55241C13.8632 9.35481 14.1336 9.32361 14.352 9.46921C14.5808 9.62001 14.6172 9.86441 14.4404 10.0984C14.0608 10.5924 13.364 10.816 12.714 10.6392C12.0588 10.4676 11.6376 9.97361 11.6376 9.37561Z"/>
</g>
<defs>
<clipPath id="clip0_11_5684">
<rect width="26" height="26" fill="white"/>
</clipPath>
</defs>
</svg>
