<svg width="26" height="26" viewBox="0 0 26 26" fill="none" xmlns="http://www.w3.org/2000/svg">
<g clip-path="url(#clip0_11_5697)">
<path d="M11.5804 10.3844C11.5804 12.8492 11.5804 15.2932 11.5804 17.7528C11.362 17.7528 11.1592 17.7528 10.9356 17.7528C10.9356 15.2932 10.9356 12.844 10.9356 10.4416C10.4936 10.3116 10.0776 10.2232 9.6824 10.062C9.126 9.83839 8.6632 9.47439 8.4084 8.91279C8.3096 8.68919 8.2472 8.42919 8.242 8.18479C8.2264 6.57279 8.2368 4.96599 8.2316 3.35399C8.2316 3.02119 8.398 2.78719 8.6424 2.59479C9.0792 2.25159 9.5888 2.09039 10.1244 1.99679C11.1644 1.81479 12.194 1.84079 13.1872 2.23079C13.4836 2.34519 13.7592 2.54799 14.014 2.74039C14.2116 2.89119 14.2792 3.12519 14.2792 3.38519C14.274 4.92439 14.2636 6.46879 14.2844 8.00799C14.2948 8.80359 13.9464 9.37559 13.3172 9.80719C12.8804 10.1088 12.3864 10.27 11.8664 10.348C11.7832 10.3584 11.6948 10.3688 11.5804 10.3844ZM10.9928 2.56879C10.7848 2.59479 10.5872 2.62599 10.3896 2.63639C10.244 2.64679 10.2128 2.71439 10.2128 2.84959C10.218 4.51879 10.2128 6.18799 10.2128 7.85199C10.2128 8.36679 10.2128 8.88159 10.2128 9.39639C10.2128 9.45359 10.2388 9.55239 10.27 9.55759C10.504 9.61999 10.738 9.66679 10.9876 9.71879C10.9928 7.31639 10.9928 4.95559 10.9928 2.56879ZM11.5284 2.56359C11.5284 4.95559 11.5284 7.32159 11.5284 9.71359C11.726 9.67719 11.908 9.63559 12.09 9.61479C12.2616 9.59399 12.3136 9.51599 12.3136 9.33919C12.3084 7.20719 12.3084 5.07519 12.3084 2.94839C12.3084 2.89119 12.3188 2.82879 12.3032 2.77159C12.2876 2.72479 12.246 2.66239 12.2096 2.65719C11.9912 2.61559 11.7728 2.59479 11.5284 2.56359ZM9.6928 2.80799C9.4276 2.90159 9.1884 3.00039 8.996 3.18759C8.9492 3.22919 8.918 3.31239 8.918 3.37479C8.9128 4.99719 8.9128 6.61439 8.918 8.23679C8.918 8.66319 9.308 9.15719 9.6928 9.27679C9.6928 7.12919 9.6928 4.98159 9.6928 2.80799ZM12.8284 2.76119C12.8284 4.97639 12.8284 7.12399 12.8284 9.27679C13.234 9.15199 13.6032 8.62679 13.6084 8.16399C13.6136 6.57799 13.6084 4.99199 13.6084 3.40599C13.6084 3.33319 13.5824 3.22399 13.5304 3.18759C13.312 3.04719 13.0832 2.91719 12.8284 2.76119Z"/>
<path d="M3.1616 17.758C2.938 17.758 2.7404 17.758 2.5116 17.758C2.5116 17.68 2.5116 17.602 2.5116 17.5292C2.5116 15.21 2.5116 12.8908 2.5168 10.5664C2.5168 10.4208 2.4856 10.3584 2.3296 10.3272C1.1284 10.0672 0.3276 8.8868 0.4992 7.67C0.7488 5.902 0.9984 4.134 1.248 2.366C1.2532 2.34 1.2584 2.314 1.274 2.2412C1.274 2.5064 1.2844 2.73 1.274 2.9484C1.2168 4.3472 1.144 5.746 1.092 7.1448C1.0712 7.6336 1.2844 8.0288 1.6588 8.3408C2.4388 8.9856 3.64 8.8764 4.264 8.1068C4.498 7.8208 4.6124 7.488 4.5968 7.1136C4.5188 5.564 4.4512 4.0196 4.3836 2.4752C4.3784 2.3816 4.3836 2.288 4.3992 2.1944C4.4668 2.6572 4.5344 3.12 4.602 3.5828C4.7944 4.9556 4.9972 6.3284 5.1844 7.7064C5.304 8.58 4.9712 9.2872 4.3212 9.8592C4.0404 10.1088 3.7076 10.27 3.3332 10.3376C3.1876 10.3636 3.1616 10.4312 3.1616 10.5612C3.1668 11.2268 3.1616 11.8976 3.1616 12.5632C3.1616 14.2168 3.1616 15.8652 3.1616 17.5188C3.1616 17.5916 3.1616 17.6644 3.1616 17.758Z"/>
<path d="M4.4356 22.152C4.3888 22.5316 4.3732 22.8436 4.3108 23.1452C4.1704 23.8056 3.7752 24.128 3.1044 24.1592C2.86 24.1696 2.6104 24.1592 2.3712 24.128C1.8564 24.0656 1.5132 23.7692 1.404 23.27C1.3208 22.8904 1.2792 22.4952 1.2896 22.1052C1.3104 21.0964 1.5132 20.1188 1.9136 19.188C2.1528 18.6316 2.158 18.6368 2.7508 18.6368C2.938 18.6368 3.1252 18.6472 3.3124 18.6368C3.4372 18.6316 3.5048 18.6784 3.562 18.7772C3.8584 19.2972 4.0508 19.8536 4.1652 20.436C4.2744 21.0236 4.3524 21.6216 4.4356 22.152Z"/>
<path d="M9.6876 22.4068C9.7396 21.1172 9.9424 20.0408 10.4052 19.0164C10.53 18.7356 10.686 18.5744 11.024 18.6264C11.2528 18.6628 11.492 18.642 11.726 18.6316C11.856 18.6264 11.9288 18.6732 11.9912 18.7824C12.3344 19.3856 12.5216 20.0408 12.6568 20.7168C12.8024 21.4552 12.8856 22.1988 12.7816 22.9476C12.766 23.0672 12.7348 23.192 12.6984 23.3064C12.5268 23.8524 12.142 24.1332 11.5232 24.1592C11.2788 24.1696 11.0292 24.154 10.79 24.128C10.2908 24.0656 9.958 23.7796 9.8332 23.296C9.7448 22.9528 9.7188 22.594 9.6876 22.4068Z"/>
<path d="M24.3048 11.7884C24.0136 11.7572 23.7484 11.726 23.4572 11.6948C23.4884 11.414 23.5144 11.1384 23.5456 10.868C23.6652 9.80198 23.7796 8.73598 23.894 7.67518C23.8992 7.60758 23.868 7.51918 23.8264 7.46198C23.686 7.26438 23.634 7.04078 23.6496 6.81198C23.6652 6.61958 23.6028 6.48958 23.4468 6.39078C23.4 6.35958 23.3584 6.31278 23.296 6.26078C23.4364 6.17758 23.5612 6.10478 23.7068 6.02158C23.582 5.91758 23.4728 5.82398 23.348 5.71998C23.4936 5.63678 23.6184 5.56398 23.764 5.48078C23.6444 5.37678 23.5352 5.28318 23.4104 5.17398C23.5508 5.09598 23.6756 5.02318 23.8212 4.93478C23.7068 4.83078 23.5976 4.73718 23.4728 4.62798C23.6132 4.54478 23.738 4.47198 23.8836 4.38878C23.764 4.28478 23.6548 4.19118 23.53 4.08198C23.6704 3.99878 23.7952 3.93118 23.9408 3.84278C23.8212 3.73878 23.7172 3.64518 23.5924 3.53598C23.7328 3.45798 23.8576 3.37998 24.0084 3.29678C23.8836 3.19278 23.7744 3.09918 23.6236 2.96398C24.0552 2.90158 24.102 2.58438 24.2112 2.28278C24.3308 1.94478 24.4764 1.87718 24.83 1.92398C24.9704 1.93958 25.1108 1.96038 25.2512 1.97078C25.3916 1.97598 25.48 2.05398 25.5424 2.17878C25.6672 2.43878 25.6672 2.71438 25.6412 2.98998C25.558 3.76478 25.4696 4.53958 25.3864 5.31438C25.3344 5.78758 25.2876 6.25558 25.2252 6.72878C25.1836 7.06678 25.116 7.39958 24.804 7.61798C24.7624 7.64918 24.752 7.74278 24.7468 7.81038C24.6324 8.80878 24.5284 9.81238 24.414 10.8108C24.3776 11.128 24.3412 11.4504 24.3048 11.7884Z"/>
<path d="M19.2868 11.6948C19.0008 11.726 18.7304 11.7572 18.4444 11.7884C18.3924 11.3412 18.3456 10.9148 18.2988 10.4832C18.2 9.58879 18.1012 8.68919 18.0076 7.79479C17.9972 7.69079 17.9556 7.62319 17.8724 7.55039C17.6436 7.35799 17.5656 7.07719 17.5344 6.79639C17.3888 5.51199 17.2432 4.22239 17.1132 2.93799C17.0924 2.70919 17.1392 2.47519 17.186 2.24639C17.2224 2.07479 17.342 1.96559 17.5396 1.96039C17.7112 1.95519 17.8776 1.93439 18.044 1.90839C18.2312 1.87719 18.3716 1.95519 18.4548 2.11119C18.5276 2.24639 18.6004 2.39719 18.6316 2.54799C18.6628 2.71439 18.7408 2.80799 18.8864 2.86519C18.954 2.89119 19.0164 2.93799 19.0996 2.98479C18.9748 3.09399 18.8656 3.18759 18.746 3.29679C18.8864 3.37999 19.0112 3.44759 19.1568 3.53079C19.0372 3.63479 18.928 3.72839 18.8032 3.83759C18.9436 3.91559 19.0684 3.98839 19.2192 4.07159C19.0996 4.18079 18.9852 4.27439 18.8656 4.38359C19.006 4.46679 19.1308 4.53439 19.2816 4.62279C19.1568 4.72679 19.0528 4.82039 18.928 4.92959C19.0736 5.01279 19.1984 5.08559 19.3388 5.16359C19.2192 5.26759 19.1152 5.36119 18.9904 5.47039C19.1256 5.54839 19.2504 5.62119 19.396 5.70959C19.2816 5.81359 19.1724 5.90719 19.0528 6.01639C19.188 6.09439 19.3128 6.16719 19.4324 6.23479C19.4324 6.25559 19.4376 6.27119 19.4324 6.27639C19.1776 6.43239 19.0788 6.65599 19.0996 6.96279C19.11 7.15519 19.0424 7.35279 18.8916 7.50359C18.8604 7.53479 18.8604 7.61279 18.8656 7.66479C18.9904 8.81919 19.1152 9.96839 19.24 11.1228C19.2452 11.31 19.266 11.4972 19.2868 11.6948Z"/>
<path d="M20.2436 18.1168C19.786 18.1636 19.3544 18.2104 18.9072 18.2572C18.6732 16.1512 18.4444 14.0712 18.2156 11.9704C18.668 11.9236 19.0944 11.8768 19.552 11.8248C19.7808 13.9256 20.0096 16.0108 20.2436 18.1168Z"/>
<path d="M23.192 11.83C23.6444 11.8768 24.076 11.9236 24.5284 11.9756C24.2944 14.0764 24.0656 16.1616 23.8368 18.2624C23.3896 18.2156 22.958 18.1688 22.5004 18.122C22.7344 16.0212 22.9632 13.936 23.192 11.83Z"/>
<path d="M21.3668 24.1644C20.3892 24.1644 19.5936 23.3428 19.5988 22.3392C19.604 21.3304 20.3996 20.514 21.3772 20.5192C22.3548 20.5244 23.1504 21.3408 23.1452 22.3496C23.14 23.348 22.3444 24.1644 21.3668 24.1644ZM20.4464 22.2144C20.4568 22.5368 20.5348 22.8436 20.7584 23.0984C21.0756 23.4624 21.5436 23.4988 21.8972 23.192C22.438 22.7188 22.4224 21.6892 21.866 21.2316C21.554 20.9768 21.138 20.9872 20.8416 21.2628C20.5712 21.5176 20.4672 21.8452 20.4464 22.2144Z"/>
<path d="M22.724 18.304C23.0152 18.3352 23.2856 18.3664 23.5716 18.3924C23.452 19.4844 23.3324 20.5556 23.2128 21.6268C23.062 21.4032 22.9528 21.1432 22.7604 20.9872C22.4848 20.7584 22.4588 20.5192 22.5056 20.1968C22.5992 19.578 22.6512 18.954 22.724 18.304Z"/>
<path d="M19.1672 18.3924C19.4636 18.3612 19.7288 18.3352 20.0148 18.304C20.0564 18.6836 20.1032 19.0476 20.1396 19.4116C20.1812 19.7964 20.2228 20.1812 20.2592 20.566C20.2644 20.6232 20.254 20.7064 20.2176 20.7376C19.916 20.9768 19.6976 21.2732 19.5208 21.6268C19.4064 20.5556 19.292 19.4844 19.1672 18.3924Z"/>
<path d="M12.0796 17.914C12.0796 18.1012 12.0796 18.2832 12.0796 18.4808C11.5336 18.4808 10.9928 18.4808 10.4416 18.4808C10.4416 18.2936 10.4416 18.1116 10.4416 17.914C10.9876 17.914 11.5284 17.914 12.0796 17.914Z"/>
<path d="M2.0228 17.914C2.5636 17.914 3.1044 17.914 3.6556 17.914C3.6556 18.1064 3.6556 18.2936 3.6556 18.486C3.1096 18.486 2.574 18.486 2.0228 18.486C2.0228 18.2988 2.0228 18.1116 2.0228 17.914Z"/>
</g>
<defs>
<clipPath id="clip0_11_5697">
<rect width="26" height="26" fill="white"/>
</clipPath>
</defs>
</svg>
