<svg viewBox="0 0 26 22" fill="none" xmlns="http://www.w3.org/2000/svg">
<path d="M1.4976 21.0464C1.534 21.062 1.5704 21.0776 1.612 21.088C1.8252 21.1608 1.95 21.3012 1.924 21.5352C1.898 21.7744 1.7212 21.8836 1.5132 21.9044C1.2324 21.9252 0.946399 21.92 0.660399 21.9044C0.431599 21.8888 0.249599 21.7744 0.228799 21.53C0.207999 21.3116 0.327599 21.1608 0.545999 21.0776C0.608399 21.0568 0.665599 20.9164 0.665599 20.828C0.675999 19.6736 0.670799 18.5192 0.670799 17.37C0.670799 14.9728 0.670799 12.5704 0.670799 10.1732C0.670799 9.09681 0.670799 8.01521 0.670799 6.93881C0.670799 6.62681 0.795599 6.46041 1.04 6.43441C1.2584 6.40841 1.4144 6.54881 1.4976 6.85041C9.204 6.85041 16.9104 6.85041 24.622 6.85041C24.6324 6.84001 24.648 6.82961 24.6532 6.81401C24.7104 6.55401 24.8768 6.40841 25.09 6.42921C25.3188 6.45521 25.4644 6.63201 25.4696 6.90761C25.4696 8.06721 25.4696 9.23201 25.4696 10.3916C25.4696 12.6744 25.4696 14.9572 25.4696 17.2348C25.4696 18.4204 25.4696 19.606 25.4748 20.7968C25.4748 20.88 25.4748 20.9632 25.4748 21.0464C25.5372 21.0672 25.5996 21.0672 25.6256 21.1036C25.7296 21.218 25.8752 21.3324 25.9064 21.4676C25.948 21.6444 25.8232 21.8368 25.6308 21.8524C25.2616 21.8836 24.882 21.8888 24.5128 21.8576C24.3308 21.842 24.2164 21.686 24.2112 21.478C24.206 21.2856 24.2996 21.14 24.4764 21.0984C24.6584 21.0516 24.6584 20.9424 24.6584 20.802C24.6532 18.982 24.6532 17.1568 24.648 15.3368C24.648 14.796 24.648 14.25 24.648 13.7092C24.648 13.6364 24.6428 13.5636 24.6376 13.4752C16.9208 13.4752 9.2248 13.4752 1.508 13.4752C1.4976 16.0128 1.4976 18.5244 1.4976 21.0464ZM24.6376 7.72921C16.9104 7.72921 9.2092 7.72921 1.508 7.72921C1.508 8.63401 1.508 9.52321 1.508 10.4176C9.23 10.4176 16.9312 10.4176 24.6376 10.4176C24.6376 9.51281 24.6376 8.63401 24.6376 7.72921ZM1.4924 12.6224C9.2248 12.6224 16.9208 12.6224 24.648 12.6224C24.648 12.222 24.6428 11.8372 24.6532 11.4576C24.6584 11.2912 24.596 11.2444 24.4348 11.2444C22.854 11.2496 21.2732 11.2496 19.6924 11.2496C17.9088 11.2496 16.1304 11.2496 14.3468 11.2496C12.6048 11.2496 10.868 11.2496 9.126 11.2496C7.3528 11.2496 5.5796 11.2496 3.8064 11.2496C3.1044 11.2496 2.4024 11.2444 1.7004 11.2548C1.6276 11.2548 1.5028 11.3432 1.5028 11.39C1.4872 11.7956 1.4924 12.2012 1.4924 12.6224Z"/>
<path d="M9.91121 3.26761C9.94761 3.75641 9.77081 4.16721 9.47961 4.54161C9.24561 4.84321 9.03761 5.13961 9.02721 5.54521C9.02201 5.80001 8.79841 5.94041 8.54881 5.90921C8.34081 5.88321 8.19001 5.65961 8.20561 5.39961C8.22641 4.99921 8.36681 4.63521 8.60601 4.31281C8.66841 4.22441 8.73601 4.14121 8.80361 4.05281C9.19361 3.54841 9.20401 3.04921 8.81401 2.53961C8.52281 2.16001 8.24201 1.76481 8.22641 1.25521C8.22121 1.09921 8.25761 0.906811 8.35121 0.797611C8.42401 0.709211 8.64241 0.662411 8.74641 0.709211C8.87121 0.766411 9.01681 0.938011 9.02721 1.06801C9.05321 1.44761 9.23521 1.72841 9.45361 2.00921C9.74481 2.37841 9.93721 2.78401 9.91121 3.26761Z"/>
<path d="M16.2136 5.37361C16.2292 4.86401 16.484 4.45841 16.7908 4.07361C17.1808 3.58481 17.1808 3.07521 16.8324 2.55521C16.6244 2.24841 16.4424 1.92081 16.2812 1.58281C16.2084 1.43201 16.2136 1.23961 16.2136 1.06801C16.2188 0.828806 16.3748 0.678006 16.6088 0.667606C16.8012 0.657206 17.0144 0.818406 17.0196 1.03161C17.0248 1.42681 17.2276 1.72321 17.4512 2.01961C18.0908 2.87761 18.0856 3.73561 17.4356 4.58841C17.2172 4.87961 17.0248 5.17081 17.0196 5.55561C17.0144 5.78961 16.796 5.93521 16.562 5.91441C16.3228 5.89361 16.1928 5.68561 16.2136 5.37361Z"/>
<path d="M16.1252 3.29361C16.172 3.79801 15.9536 4.21921 15.6572 4.59881C15.4492 4.86401 15.2776 5.12921 15.2516 5.48801C15.2308 5.79481 15.028 5.94561 14.7784 5.91441C14.5392 5.88321 14.3936 5.67001 14.4248 5.36841C14.4716 4.89001 14.6796 4.47921 14.9864 4.11001C15.262 3.78241 15.3816 3.41841 15.2724 2.99721C15.2412 2.87761 15.1892 2.76321 15.1268 2.65921C14.9916 2.41481 15.0384 2.17561 15.2516 2.04561C15.4492 1.92601 15.6728 1.99881 15.8288 2.22761C16.0472 2.55001 16.1512 2.90361 16.1252 3.29361Z"/>
<path d="M19.6976 3.38201C19.6976 3.73561 19.578 4.13601 19.2972 4.47921C19.0268 4.80681 18.8188 5.15001 18.7876 5.59201C18.772 5.81041 18.5692 5.93521 18.356 5.91961C18.1428 5.89881 17.992 5.74801 17.9868 5.51921C17.9764 5.07721 18.122 4.69241 18.3768 4.33361C18.5796 4.05281 18.8708 3.80841 18.8396 3.42361C18.8188 3.16881 18.7772 2.91401 18.6888 2.68001C18.59 2.41481 18.5952 2.18081 18.7824 2.06121C18.9852 1.93121 19.2348 1.99881 19.4012 2.25361C19.6092 2.56561 19.6924 2.91921 19.6976 3.38201Z"/>
<path d="M10.9044 3.2624C10.8316 3.0648 10.7744 2.8568 10.686 2.6644C10.5716 2.4148 10.5924 2.186 10.7796 2.0612C10.972 1.9312 11.2164 1.9936 11.3828 2.2172C11.83 2.8204 11.8092 3.8136 11.3152 4.4688C11.0552 4.812 10.8108 5.1396 10.79 5.6024C10.7796 5.8 10.5976 5.93 10.374 5.9144C10.1556 5.8988 10.0152 5.7792 9.99959 5.5556C9.95799 5.0252 10.1712 4.578 10.4936 4.1828C10.7068 3.9124 10.8992 3.6472 10.9044 3.2624Z"/>
<path d="M8.1484 3.31441C8.1588 3.78761 7.982 4.19841 7.6908 4.55201C7.4568 4.84321 7.28 5.14481 7.2436 5.52961C7.2176 5.80521 7.0512 5.92481 6.812 5.90921C6.5884 5.89361 6.4428 5.71681 6.4376 5.46721C6.422 4.95241 6.6456 4.53121 6.9628 4.15161C7.228 3.83441 7.3788 3.48601 7.2904 3.07001C7.254 2.90881 7.176 2.75801 7.1084 2.61241C6.9992 2.37841 7.0512 2.17561 7.2592 2.05081C7.4568 1.93121 7.6752 1.98841 7.8208 2.20161C8.0444 2.54481 8.1588 2.91401 8.1484 3.31441Z"/>
<path d="M10.1712 9.47641C9.69798 9.47641 9.21958 9.47641 8.74638 9.47641C8.42398 9.47641 8.21078 9.31521 8.21078 9.07601C8.21078 8.82121 8.41878 8.64441 8.74638 8.64441C9.51598 8.64441 10.2804 8.64961 11.05 8.65481C11.258 8.65481 11.466 8.63921 11.674 8.65481C11.9912 8.67041 12.1576 8.83681 12.142 9.09161C12.1316 9.31521 11.9288 9.47641 11.648 9.47641C11.154 9.47641 10.6652 9.47641 10.1712 9.47641Z"/>
<path d="M4.38879 9.47641C3.90519 9.47641 3.42159 9.47641 2.93799 9.47641C2.63639 9.47641 2.44399 9.31001 2.43879 9.06561C2.43359 8.82641 2.63119 8.65481 2.93279 8.64961C3.91559 8.64441 4.90359 8.64441 5.88639 8.64961C6.17759 8.64961 6.37519 8.83161 6.37519 9.07601C6.37519 9.31001 6.16719 9.47641 5.86559 9.47641C5.37679 9.47641 4.88279 9.47641 4.38879 9.47641Z"/>
<path d="M15.9328 9.47641C15.4544 9.47641 14.9812 9.47641 14.5028 9.47641C14.1908 9.47641 13.9984 9.33081 13.9828 9.09161C13.9672 8.84201 14.1596 8.65481 14.482 8.64961C15.1944 8.63921 15.9016 8.64961 16.614 8.64961C16.9208 8.64961 17.2328 8.64961 17.5396 8.66521C17.7268 8.67041 17.8516 8.77961 17.888 8.96681C17.9296 9.15921 17.8672 9.32041 17.6956 9.41401C17.6124 9.46081 17.5032 9.47121 17.4096 9.47121C16.9208 9.47641 16.4268 9.47641 15.9328 9.47641Z"/>
<path d="M21.7204 9.47641C21.2368 9.47641 20.7532 9.47641 20.2696 9.47641C19.9628 9.47641 19.7652 9.32041 19.7548 9.08121C19.7496 8.83681 19.9368 8.66001 20.2384 8.65481C21.2316 8.64961 22.2248 8.64961 23.218 8.65481C23.5144 8.65481 23.6964 8.82641 23.6912 9.06041C23.6912 9.29961 23.4832 9.47641 23.1972 9.47641C22.7032 9.48161 22.2144 9.47641 21.7204 9.47641Z"/>
</svg>
