<svg width="26" height="26" viewBox="0 0 26 26" fill="none" xmlns="http://www.w3.org/2000/svg">
<g clip-path="url(#clip0_11_5757)">
<path d="M12.9844 26.0728C5.8136 26.0572 -0.0156002 20.2124 -2.32783e-07 13.052C0.0155998 5.8812 5.8604 0.0519972 13.0156 0.0675972C20.1864 0.0831972 26.0156 5.928 26 13.0884C25.9844 20.2592 20.1344 26.0936 12.9844 26.0728ZM12.9896 24.9444C19.5364 24.9496 24.8508 19.6456 24.8716 13.0884C24.8872 6.5468 19.578 1.2168 13.026 1.2012C6.4688 1.1804 1.1336 6.5104 1.1284 13.0728C1.1284 19.6144 6.4428 24.9392 12.9896 24.9444Z"/>
<path d="M11.3256 15.9068C11.3256 16.276 11.3256 16.6244 11.3256 17.0144C12.0588 17.0144 12.792 17.0144 13.546 17.0144C13.546 17.4096 13.546 17.7632 13.546 18.148C12.8076 18.148 12.0848 18.148 11.3256 18.148C11.3256 18.9072 11.3256 19.6404 11.3256 20.3996C10.9356 20.3996 10.5768 20.3996 10.1816 20.3996C10.1816 19.656 10.1816 18.9228 10.1816 18.1584C9.6096 18.1584 9.074 18.1584 8.5124 18.1584C8.5124 17.7736 8.5124 17.4148 8.5124 17.03C9.0584 17.03 9.5992 17.03 10.1608 17.03C10.1608 16.6452 10.1608 16.2864 10.1608 15.9016C9.6148 15.9016 9.0792 15.9016 8.5176 15.9016C8.5176 15.5168 8.5176 15.158 8.5176 14.768C9.0636 14.768 9.6096 14.768 10.1816 14.768C10.1816 11.934 10.1816 9.13638 10.1816 6.30758C10.3168 6.30238 10.4312 6.29198 10.5404 6.29198C11.6116 6.29198 12.688 6.28678 13.7592 6.29198C16.25 6.30238 18.1896 7.93518 18.6004 10.3844C18.6576 10.7432 18.7148 11.128 18.642 11.4712C18.3716 12.6828 17.9608 13.8424 16.978 14.6952C16.0836 15.47 15.0592 15.886 13.8736 15.8912C13.1352 15.8912 12.3968 15.8912 11.6532 15.8912C11.544 15.8964 11.44 15.9016 11.3256 15.9068ZM11.3204 14.7628C12.2096 14.7628 13.0676 14.7784 13.9308 14.7576C14.2688 14.7472 14.6172 14.6952 14.9396 14.5964C16.64 14.0868 17.7164 12.3916 17.4928 10.634C17.264 8.86078 15.8132 7.50878 14.0348 7.44118C13.182 7.40998 12.3292 7.43078 11.4712 7.43078C11.4244 7.43078 11.3776 7.44638 11.3204 7.45678C11.3204 9.88518 11.3204 12.298 11.3204 14.7628Z"/>
</g>
<defs>
<clipPath id="clip0_11_5757">
<rect width="26" height="26" fill="white"/>
</clipPath>
</defs>
</svg>
