<svg viewBox="0 0 50 50" xmlns="http://www.w3.org/2000/svg">
<g clip-path="url(#clip0_11_3407)">
<path d="M31.58 17.46C31.89 17.46 32.1 17.46 32.3 17.46C34.32 17.47 36.34 17.42 38.36 17.5C40.69 17.59 42.22 20.07 41.38 22.24C41.15 22.83 40.82 23.33 40.32 23.72C40.14 23.87 40.1 23.99 40.22 24.21C40.93 25.54 40.6 27.09 39.4 28.01C39.18 28.18 39.18 28.32 39.28 28.56C39.84 29.88 39.49 31.25 38.36 32.14C38.17 32.29 38.12 32.41 38.22 32.63C39.08 34.53 37.9 36.45 36.15 36.84C35.86 36.9 35.55 36.92 35.25 36.92C30.21 36.92 25.17 36.93 20.13 36.92C19.84 36.92 19.65 36.98 19.46 37.23C19.05 37.77 18.46 37.96 17.8 37.96C15.83 37.97 13.85 37.97 11.88 37.96C10.57 37.95 9.74998 37.12 9.73998 35.81C9.72998 30.4 9.72998 24.99 9.73998 19.58C9.73998 18.27 10.58 17.46 11.89 17.45C13.85 17.45 15.81 17.44 17.78 17.46C18.06 17.46 18.35 17.56 18.63 17.58C18.77 17.59 18.95 17.57 19.06 17.49C19.29 17.34 19.51 17.15 19.69 16.95C20.59 15.9 21.73 15.29 23.01 14.81C24.59 14.22 25.92 13.23 26.93 11.85C27.18 11.51 27.33 11.14 27.36 10.7C27.46 9.27003 28.82 7.91003 30.23 7.69003C32.69 7.30003 34.62 9.37003 34.36 11.85C34.25 12.92 33.91 13.92 33.36 14.83C32.9 15.6 32.35 16.33 31.84 17.07C31.79 17.18 31.71 17.28 31.58 17.46ZM11.69 27.7C11.69 30.32 11.7 32.95 11.69 35.57C11.69 35.91 11.77 36.04 12.14 36.04C13.96 36.02 15.79 36.03 17.61 36.04C17.95 36.04 18.04 35.92 18.04 35.59C18.03 32.4 18.03 29.2 18.03 26.01C18.03 25.82 18.03 25.64 18.06 25.45C18.12 25.04 18.48 24.73 18.9 24.7C19.35 24.66 19.76 24.9 19.88 25.32C19.95 25.55 19.97 25.8 19.97 26.04C19.98 28.88 19.98 31.73 19.97 34.57C19.97 34.9 20.06 35 20.4 35C25.33 34.99 30.27 34.99 35.2 34.99C35.36 34.99 35.53 34.99 35.69 34.96C36.09 34.89 36.38 34.67 36.52 34.3C36.67 33.89 36.64 33.47 36.3 33.18C36.09 33 35.78 32.88 35.5 32.82C35.09 32.72 34.75 32.56 34.62 32.14C34.42 31.5 34.84 30.93 35.54 30.89C35.98 30.86 36.42 30.88 36.85 30.8C37.3 30.72 37.54 30.39 37.62 29.96C37.69 29.52 37.55 29.13 37.16 28.91C36.91 28.77 36.58 28.76 36.32 28.62C36.08 28.49 35.81 28.31 35.7 28.08C35.41 27.51 35.79 26.87 36.43 26.79C36.89 26.73 37.36 26.76 37.81 26.69C38.3 26.62 38.62 26.23 38.67 25.73C38.72 25.31 38.44 24.83 38.03 24.67C37.83 24.59 37.6 24.56 37.39 24.51C36.95 24.41 36.65 24.05 36.64 23.59C36.64 23.13 36.93 22.75 37.38 22.68C37.71 22.62 38.05 22.63 38.38 22.58C39.45 22.43 40.05 21.13 39.48 20.22C39.12 19.64 38.61 19.4 37.93 19.4C35.13 19.41 32.33 19.41 29.53 19.4C29.33 19.4 29.13 19.39 28.94 19.35C28.22 19.18 27.96 18.34 28.45 17.79C28.64 17.58 28.87 17.39 29.08 17.19C30.31 16.07 31.34 14.79 32 13.25C32.3 12.53 32.55 11.79 32.42 10.99C32.29 10.17 31.56 9.54003 30.81 9.58003C29.97 9.62003 29.36 10.22 29.27 11.09C29.21 11.7 29.01 12.26 28.66 12.77C27.43 14.59 25.72 15.8 23.72 16.64C23.06 16.91 22.36 17.11 21.82 17.62C21.25 18.15 20.67 18.66 20.1 19.2C20.01 19.28 19.97 19.44 19.97 19.57C19.96 20.15 19.98 20.73 19.96 21.31C19.95 21.54 19.91 21.78 19.82 21.98C19.64 22.36 19.23 22.53 18.79 22.45C18.4 22.38 18.08 22.05 18.06 21.63C18.03 21.04 18.02 20.45 18.04 19.85C18.05 19.5 17.95 19.39 17.59 19.39C15.78 19.41 13.97 19.4 12.16 19.4C11.7 19.4 11.7 19.4 11.7 19.87C11.69 22.48 11.69 25.09 11.69 27.7Z"/>
<path d="M49.83 24.9099C49.81 26.6999 49.6 28.4699 49.19 30.2199C48.63 32.6599 47.7 34.9499 46.44 37.1099C45.1 39.3899 43.44 41.4099 41.45 43.1499C39.04 45.2599 36.33 46.8599 33.3 47.9199C31.23 48.6499 29.1 49.0699 26.91 49.2399C24.83 49.3999 22.76 49.2799 20.7 48.9099C16.67 48.1699 13.03 46.5299 9.82001 43.9799C9.55001 43.7599 9.26001 43.5499 9.05001 43.2799C8.80001 42.9599 8.88001 42.4599 9.16001 42.1499C9.44001 41.8399 9.94001 41.7399 10.3 41.9699C10.7 42.2199 11.08 42.5199 11.45 42.8099C13.24 44.1699 15.19 45.2199 17.29 45.9899C20.53 47.1799 23.88 47.5799 27.32 47.2599C30.4 46.9699 33.3 46.0699 36.01 44.6099C38.12 43.4699 39.99 42.0099 41.64 40.2699C43.73 38.0699 45.31 35.5399 46.39 32.7199C47.49 29.8399 47.97 26.8399 47.86 23.7499C47.76 21.0999 47.23 18.5399 46.22 16.0999C45.73 14.9199 45.07 13.7999 44.5 12.6499C44.38 12.4099 44.26 12.1399 44.23 11.8799C44.19 11.4899 44.44 11.1499 44.8 11.0099C45.18 10.8599 45.53 10.9199 45.83 11.2099C45.91 11.2899 45.99 11.3799 46.05 11.4799C47.49 13.7799 48.53 16.2499 49.16 18.8899C49.64 20.8499 49.88 22.8599 49.83 24.9099Z"/>
<path d="M24.3 -0.0800738C28.2 -0.140074 31.54 0.489926 34.72 1.83993C35.95 2.35993 37.12 3.04993 38.3 3.68993C38.86 3.98993 39 4.55993 38.72 5.04993C38.45 5.51993 37.91 5.64993 37.35 5.35993C36.7 5.00993 36.06 4.61993 35.4 4.27993C33.82 3.45993 32.15 2.85993 30.42 2.44993C28.38 1.96993 26.3 1.76993 24.2 1.85993C21.71 1.95993 19.3 2.46993 16.98 3.35993C13.98 4.50993 11.33 6.21993 9.07001 8.49993C6.73001 10.8499 4.97001 13.5799 3.82001 16.6999C2.73001 19.6399 2.26001 22.6699 2.43001 25.7899C2.65001 29.8799 3.88001 33.6599 6.14001 37.0899C6.61001 37.7999 7.14001 38.4599 7.64001 39.1399C8.06001 39.7199 8.02001 40.2899 7.52001 40.6399C7.10001 40.9399 6.53001 40.8399 6.16001 40.3899C4.48001 38.3099 3.11001 36.0499 2.14001 33.5499C1.47001 31.8199 0.99001 30.0399 0.72001 28.2099C0.33001 25.4899 0.38001 22.7799 0.89001 20.0699C1.38001 17.4399 2.26001 14.9599 3.55001 12.6399C4.91001 10.1799 6.64001 8.00993 8.75001 6.14993C11.36 3.84993 14.31 2.14993 17.63 1.08993C19.94 0.339926 22.31 -0.0300738 24.3 -0.0800738Z"/>
<path d="M40.19 7.10994C40.25 6.69994 40.43 6.41994 40.77 6.24994C41.09 6.08994 41.45 6.06994 41.72 6.31994C42.3 6.84994 42.87 7.38994 43.4 7.97994C43.75 8.37994 43.67 8.91994 43.3 9.26994C42.94 9.59994 42.43 9.62994 42.04 9.27994C41.49 8.77994 40.98 8.24994 40.47 7.69994C40.32 7.53994 40.27 7.30994 40.19 7.10994Z"/>
<path d="M14.85 33.8198C14.32 33.8098 13.91 33.3898 13.91 32.8698C13.91 32.3398 14.37 31.8898 14.89 31.9098C15.41 31.9298 15.83 32.3798 15.82 32.8898C15.8 33.4098 15.37 33.8298 14.85 33.8198Z"/>
</g>
<defs>
<clipPath id="clip0_11_3407">
<rect width="50" height="50" fill="white"/>
</clipPath>
</defs>
</svg>
