<?xml version="1.0" standalone="no"?>
<!DOCTYPE svg PUBLIC "-//W3C//DTD SVG 20010904//EN"
 "http://www.w3.org/TR/2001/REC-SVG-20010904/DTD/svg10.dtd">
<svg version="1.0" xmlns="http://www.w3.org/2000/svg"
 width="512.000000pt" height="512.000000pt" viewBox="0 0 512.000000 512.000000"
 preserveAspectRatio="xMidYMid meet">

<g transform="translate(0.000000,512.000000) scale(0.100000,-0.100000)"
fill="#000000" stroke="none">
<path d="M2190 5064 c-58 -63 -92 -141 -98 -225 -7 -108 22 -194 105 -301 109
-142 117 -239 33 -366 -22 -33 -40 -70 -40 -84 0 -28 29 -63 60 -73 82 -26
199 158 200 311 0 97 -31 179 -107 285 -113 158 -120 235 -30 352 42 55 46 83
16 121 -16 20 -29 26 -58 26 -33 0 -45 -7 -81 -46z"/>
<path d="M2808 5068 c-21 -23 -51 -67 -66 -97 -24 -50 -27 -67 -27 -161 0 -96
3 -110 29 -160 16 -30 50 -85 77 -121 102 -138 108 -259 19 -367 -38 -46 -40
-93 -5 -127 13 -14 36 -25 50 -25 62 0 154 133 176 255 21 113 -9 219 -97 341
-76 106 -94 145 -94 202 0 58 19 109 58 154 38 44 43 61 31 98 -13 36 -36 50
-80 50 -25 0 -41 -9 -71 -42z"/>
<path d="M1577 4828 c-22 -23 -52 -68 -68 -101 -67 -143 -42 -283 79 -440 106
-138 108 -249 7 -386 -14 -19 -25 -43 -25 -53 0 -28 54 -78 84 -78 39 0 92 55
133 138 37 73 38 80 38 181 0 95 -3 112 -28 165 -15 32 -49 89 -76 125 -69 94
-83 126 -84 190 0 61 17 105 64 159 54 62 26 142 -51 142 -26 0 -42 -9 -73
-42z"/>
<path d="M3427 4828 c-22 -23 -52 -68 -68 -101 -67 -142 -42 -283 77 -439 109
-140 111 -248 9 -387 -14 -19 -25 -43 -25 -53 0 -28 54 -78 84 -78 39 0 92 55
133 138 37 73 38 80 38 181 0 95 -3 112 -28 165 -15 32 -49 89 -76 125 -69 94
-83 126 -84 190 0 61 17 105 64 159 54 62 26 142 -51 142 -26 0 -42 -9 -73
-42z"/>
<path d="M2310 3660 c-937 -37 -1560 -258 -1560 -552 l0 -48 -39 0 c-38 0 -39
1 -46 40 -4 22 -15 50 -25 62 -18 22 -24 23 -232 26 -136 2 -229 -1 -258 -8
-96 -24 -149 -97 -150 -203 0 -94 31 -151 105 -191 38 -20 54 -21 278 -21 236
0 239 0 257 23 10 12 21 40 25 62 l7 40 49 0 c43 0 49 -3 49 -21 0 -45 43
-229 77 -329 65 -194 177 -396 308 -559 153 -190 417 -400 618 -490 l67 -30
-24 -53 c-13 -29 -116 -250 -230 -491 -115 -245 -206 -450 -206 -465 0 -60 94
-98 133 -54 8 9 119 238 246 507 133 283 236 489 243 489 7 -1 49 -11 93 -23
92 -24 228 -47 333 -56 l72 -7 0 -627 0 -628 23 -21 c29 -27 77 -28 108 -3
l24 19 3 631 2 630 33 5 c17 3 75 10 127 17 52 6 149 26 215 44 66 19 123 30
126 27 3 -4 108 -225 233 -492 126 -267 237 -495 249 -508 49 -53 147 -8 133
61 -3 16 -107 244 -230 506 -124 263 -226 483 -228 489 -2 6 46 39 107 72 183
103 353 237 478 378 36 40 47 61 47 85 0 46 -31 77 -78 77 -32 0 -45 -9 -111
-76 -153 -156 -295 -262 -466 -347 -170 -85 -390 -149 -557 -163 l-78 -7 0
184 c0 199 -6 224 -52 246 -32 16 -80 1 -97 -30 -7 -14 -12 -94 -14 -212 l-2
-190 -55 3 c-188 9 -421 73 -605 165 -434 216 -764 627 -875 1089 -29 123 -32
120 65 72 241 -118 632 -199 1130 -235 211 -15 821 -6 1008 15 440 50 757 127
959 233 29 15 56 29 59 31 9 4 -25 -141 -54 -233 -32 -104 -75 -203 -128 -296
-26 -45 -43 -87 -43 -107 0 -45 33 -76 80 -76 48 0 68 25 144 179 72 146 121
290 153 450 l24 120 46 3 45 3 7 -40 c4 -23 15 -51 25 -63 18 -23 21 -23 257
-23 224 0 240 1 278 21 74 40 105 97 105 191 -1 106 -54 179 -150 203 -29 7
-122 10 -258 8 -208 -3 -214 -4 -232 -26 -10 -12 -21 -40 -25 -62 -7 -39 -8
-40 -46 -40 l-39 0 0 48 c-1 226 -365 411 -985 501 -301 44 -733 64 -1075 51z
m190 -315 l-155 -155 -150 0 -150 1 157 154 158 155 147 0 148 0 -155 -155z
m544 139 l118 -7 -143 -143 -144 -144 -150 0 -150 1 159 155 c105 102 164 153
175 150 9 -3 69 -8 135 -12z m-1081 -144 l-152 -150 -148 0 -148 0 130 130
c72 72 139 133 150 135 20 5 262 32 300 34 14 0 -29 -47 -132 -149z m1542 84
c55 -9 102 -19 104 -21 3 -2 -42 -51 -99 -108 l-105 -105 -150 0 -150 1 134
130 c87 84 140 128 150 125 9 -2 61 -12 116 -22z m-2119 -129 l-110 -105 -155
0 -156 1 25 20 c35 29 141 81 230 113 73 27 245 75 265 75 6 0 -39 -47 -99
-104z m2553 15 l83 -32 -43 -44 -43 -44 -150 0 -151 0 80 81 c92 93 87 92 224
39z m-3439 -335 l0 -55 -142 1 c-182 1 -192 4 -196 52 -4 51 11 56 191 56
l147 1 0 -55z m4435 45 c23 -9 26 -15 23 -47 -4 -48 -14 -51 -195 -52 l-143
-1 0 55 0 55 144 0 c80 0 157 -4 171 -10z m-3857 -26 l-26 -26 -38 26 -39 26
65 0 65 0 -27 -26z m531 0 c-13 -14 -58 -57 -99 -94 l-75 -68 -80 23 c-44 13
-93 29 -109 35 l-30 11 59 59 59 60 150 0 149 0 -24 -26z m421 -104 c-91 -87
-142 -130 -158 -130 -25 0 -224 29 -229 34 -2 1 48 53 109 114 l113 112 150
-1 150 0 -135 -129z m510 -21 l-155 -149 -135 6 c-74 4 -137 8 -138 10 -2 1
61 66 140 143 l143 140 150 0 150 0 -155 -150z m538 7 l-147 -143 -62 -7 c-34
-3 -104 -6 -155 -6 l-93 0 152 150 152 149 150 0 150 0 -147 -143z m567 34
l-110 -109 -125 -20 c-69 -11 -147 -22 -175 -26 l-50 -6 135 135 135 136 150
0 150 0 -110 -110z m470 89 c-50 -33 -116 -65 -195 -93 l-75 -26 72 70 73 70
77 0 78 0 -30 -21z"/>
</g>
</svg>
